# xmcd
#
# Track frame offsets: 
#        150
#        18845
#        34472
#        55321
#        71075
#        91981
#        118382
#        132850
#        152038
#        168362
#        193934
#        217664
#
# Disc length: 3191 seconds
#
# Revision: 3
# Processed by: cddbd v1.5.2PL0 Copyright (c) Steve Scherf et al.
# Submitted via: ExactAudioCopyFreeDBPlugin 1.0
#
DISCID=a90c750c
DTITLE=Kenny Chesney - Welcome To The Fishbowl
DYEAR=2012
DGENRE=Country
TTITLE0=Come Over
TTITLE1=Feel Like A Rock Star (with Tim McGraw)
TTITLE2=Sing 'Em Good My Friend
TTITLE3=Welcome To The Fishbowl
TTITLE4=I'm A Small Town
TTITLE5=El Cerrito Place
TTITLE6=Makes Me Wonder
TTITLE7=While He Still Knows Who I Am
TTITLE8=Time Flies
TTITLE9=To Get To You (55th And 3rd)
TTITLE10=Always Gonna Be You
TTITLE11=You And Tequila (Live At Red Rocks Amphitheatre)
EXTD=
EXTT0=
EXTT1=
EXTT2=
EXTT3=
EXTT4=
EXTT5=
EXTT6=
EXTT7=
EXTT8=
EXTT9=
EXTT10=
EXTT11=
PLAYORDER=
